<svg xmlns="http://www.w3.org/2000/svg" width="79" height="78" viewBox="0 0 79 78"><path fill="#ebeded" d="M78.226 43.519c0 18.779-15.221 34-34 34-18.778 0-34-15.221-34-34 0-18.78 15.222-34 34-34 18.779 0 34 15.22 34 34z"/><path fill="none" stroke="#5b6b75" stroke-linecap="round" stroke-linejoin="round" stroke-miterlimit="50" stroke-width="3" d="M70.226 35.519c0 18.779-15.221 34-34 34-18.778 0-34-15.221-34-34 0-18.78 15.222-34 34-34 18.779 0 34 15.22 34 34z"/><path fill="none" stroke="#fff" stroke-linecap="round" stroke-linejoin="round" stroke-miterlimit="50" stroke-width="3" d="M8.188 35.519C8.188 20.034 20.74 7.48 36.225 7.48m28.039 28.039c0 15.486-12.553 28.038-28.038 28.038"/><path fill="none" stroke="#ffb808" stroke-linecap="round" stroke-linejoin="round" stroke-miterlimit="50" stroke-width="3" d="M36.226 63.556c-15.485 0-28.038-12.552-28.038-28.038M36.226 7.481c15.486 0 28.038 12.552 28.038 28.038m-28.038 0v-19.64"/><path fill="none" stroke="#5b6b75" stroke-linecap="round" stroke-linejoin="round" stroke-miterlimit="50" stroke-width="3" d="M36.226 35.519V22.385"/></svg>