<svg xmlns="http://www.w3.org/2000/svg" width="48" height="38" viewBox="0 0 48 38"><path fill="#8d81ac" d="M48.006 4.487A20.02 20.02 0 0 1 42.35 6c2.033-1.188 3.594-3.068 4.33-5.31a20.011 20.011 0 0 1-6.255 2.33 9.964 9.964 0 0 0-7.19-3.03c-5.44 0-9.85 4.294-9.85 9.592 0 .752.087 1.484.255 2.186-8.187-.4-15.445-4.218-20.304-10.023a9.365 9.365 0 0 0-1.333 4.824c0 3.326 1.739 6.263 4.382 7.983a9.99 9.99 0 0 1-4.462-1.2v.123c0 4.647 3.395 8.523 7.902 9.404a10.085 10.085 0 0 1-4.45.164c1.255 3.813 4.892 6.585 9.202 6.662-3.371 2.574-7.618 4.107-12.234 4.107-.795 0-1.578-.046-2.35-.133a28.424 28.424 0 0 0 15.1 4.31c18.12 0 28.027-14.618 28.027-27.294 0-.415-.009-.83-.028-1.241a19.685 19.685 0 0 0 4.914-4.967z"/></svg>