<svg xmlns="http://www.w3.org/2000/svg" width="67" height="91" viewBox="0 0 67 91"><path fill="#ebeded" d="M47 36v12l19.5 43h-57L28 48V36z"/><path fill="#ffb808" d="M1.5 83h57l-9.62-20H11.12z"/><path fill="#fff" d="M24.5 36v4L7.275 78.529h4L28.5 40v-4z"/><path fill="#ffb808" d="M32.831 31.385a2.832 2.832 0 1 1-5.663-.002 2.832 2.832 0 0 1 5.663.002z"/><path fill="none" stroke="#5b6b75" stroke-linecap="round" stroke-linejoin="round" stroke-miterlimit="50" stroke-width="3" d="M39.5 28v12l19 42.5h-57l19-42.5V28M44 22.5H16"/><path fill="#ffb808" d="M45.074 5.832a5.668 5.668 0 1 1-11.337 0 5.668 5.668 0 0 1 11.337 0z"/><path fill="#fff" d="M34.627 69.336a.887.887 0 1 1-1.774 0 .887.887 0 0 1 1.774 0z"/><path fill="#ffb808" d="M37.389 60.956c-1.13 0-2.044.915-2.044 2.044h4.088a2.043 2.043 0 0 0-2.044-2.044z"/><path fill="#fff" d="M37.389 65.044c1.13 0 2.044-.915 2.044-2.044h-4.088c0 1.129.914 2.044 2.044 2.044z"/></svg>