<svg xmlns="http://www.w3.org/2000/svg" width="48" height="48" viewBox="0 0 48 48"><path fill="#fff" d="M32.275 47.358c-.17-2.354-.36-5.27-.371-6.45-.074-.907-.17-3.212-2.319-4.683 8.532-.728 12.592-5.53 12.882-11.876.243-3.613-1.166-6.79-3.673-9.354.129-2.743-.08-5.993-.254-7.424-1.923-.563-6.409 1.85-7.664 2.882-2.643-1.045-9.114-1.413-13.047 0-2.788-1.996-5.962-3.23-7.691-2.886-1.597 3.604-.57 7.01-.258 7.416-2.057 1.914-4.926 4.27-4.147 9.204 1.25 7.236 6.249 11.139 14.299 12.094-1.717.358-2.007 1.662-2.151 2.227-5.406 2.272-6.95-1.403-7.634-2.36-2.27-2.86-4.305-2.03-4.432-1.984-.121.046-.213.226-.201.313.114.616 1.35 1.242 1.41 1.294 1.674 1.27 2.294 3.568 2.676 4.22 2.402 4.021 7.985 2.354 8.039 2.387.004.351-.038 3.311-.073 5.615C7.49 45.16 0 35.705 0 24.441 0 10.943 10.745 0 24 0s24 10.942 24 24.44c0 10.534-6.553 19.482-15.725 22.917z"/></svg>