<svg fill="#fff" xmlns="http://www.w3.org/2000/svg" viewBox="0 0 321.666 321.666"><path d="M320.518 70.438a3.502 3.502 0 0 0-4.287-.325c-5.903 3.916-13.86 5.904-20.473 6.914 7.907-6.45 17.13-16.588 17.069-29.652a3.501 3.501 0 0 0-5.563-2.812c-11.985 8.746-29.164 13.34-35.454 14.807-4.448-7.33-19.746-28.824-46.187-28.824-1.479 0-2.988.07-4.485.207-32.859 3.022-48.781 22.237-56.351 37.825-4.786 9.855-6.888 19.397-7.809 25.699-5.211-4.542-14.3-11.454-27.829-18.371-20.668-10.569-56.166-23.167-107.902-23.167-5.03 0-10.197.119-15.358.354a3.503 3.503 0 0 0-2.846 1.702 3.497 3.497 0 0 0-.148 3.313C13.937 81.04 37.69 94.51 53.153 101.18c-8.484 2.248-17.549 6.634-20.388 13.544-1.441 3.508-1.811 9.021 4.608 15.364 9.424 9.312 20.503 14.97 30.265 18.405-7.648 1.361-13.755 3.697-15.735 7.584-.753 1.48-1.612 4.518 1.1 8.246 13.001 17.878 44.162 24.83 57.98 25.964-1.753 4.165-5.404 10.928-12.455 17.626-15.066 14.309-38.822 21.873-68.7 21.874h-.009c-8.119 0-16.833-.55-25.903-1.636a3.499 3.499 0 1 0-2.821 6.018C40.484 271.42 85.2 291.113 130.41 291.12h.023c49.772 0 98.504-24.472 130.357-65.463 28.367-36.505 39.233-80.199 30.06-120.383 6.128-2.623 19.655-10.379 30.406-30.602a3.499 3.499 0 0 0-.738-4.234z"/></svg>