<svg xmlns="http://www.w3.org/2000/svg" width="121" height="119" viewBox="0 0 121 119"><path fill="#2b414d" d="M60.609.435C27.262.435.22 27.47.22 60.823c0 26.68 17.303 49.316 41.297 57.301 3.018.56 4.126-1.31 4.126-2.905 0-1.439-.056-6.197-.082-11.243-16.8 3.653-20.345-7.125-20.345-7.125-2.747-6.979-6.705-8.836-6.705-8.836-5.48-3.748.413-3.67.413-3.67 6.064.425 9.257 6.223 9.257 6.223 5.386 9.231 14.127 6.562 17.573 5.02.543-3.903 2.107-6.568 3.834-8.076-13.413-1.526-27.513-6.705-27.513-29.844 0-6.592 2.359-11.98 6.222-16.209-.627-1.52-2.694-7.663.586-15.98 0 0 5.07-1.623 16.61 6.19 4.817-1.338 9.983-2.009 15.115-2.033 5.132.024 10.302.695 15.128 2.033 11.526-7.813 16.59-6.19 16.59-6.19 3.287 8.317 1.22 14.46.593 15.98 3.872 4.23 6.214 9.617 6.214 16.21 0 23.194-14.127 28.3-27.574 29.795 2.166 1.874 4.096 5.55 4.096 11.183 0 8.08-.07 14.583-.07 16.572 0 1.608 1.087 3.49 4.148 2.898 23.982-7.994 41.263-30.622 41.263-57.294C120.997 27.47 93.96.435 60.609.435z"/><path fill="#2b414d" d="M23.093 87.138c-.133.301-.605.391-1.035.185-.439-.197-.684-.606-.542-.907.13-.309.602-.395 1.04-.189.438.197.688.61.537.911zM25.54 89.867c-.288.267-.852.143-1.233-.279-.396-.421-.47-.985-.177-1.255.297-.267.843-.142 1.238.279.396.426.473.984.172 1.255zM27.92 93.344c-.37.259-.976.018-1.35-.52-.37-.537-.37-1.181.01-1.44.373-.257.97-.024 1.35.508.368.546.368 1.19-.01 1.453zM31.182 96.705c-.33.365-1.036.267-1.552-.232-.528-.486-.675-1.177-.344-1.542.336-.366 1.045-.263 1.565.23.524.487.683 1.183.331 1.544zM35.682 98.656c-.147.473-.825.687-1.509.486-.683-.207-1.13-.76-.992-1.238.142-.476.824-.7 1.513-.485.682.206 1.13.756.988 1.237zM40.624 99.017c.017.498-.563.911-1.28.92-.723.016-1.308-.387-1.316-.877 0-.503.569-.91 1.29-.924.718-.014 1.307.387 1.307.881zM45.223 98.235c.086.485-.413.984-1.126 1.117-.7.13-1.35-.172-1.439-.653-.087-.498.42-.997 1.121-1.126.714-.124 1.353.168 1.444.662z"/></svg>