<svg xmlns="http://www.w3.org/2000/svg" width="91" height="88" viewBox="0 0 91 88"><path fill="#ebeded" d="M24.994 70.7c9.12 15.758 29.288 21.142 45.047 12.021C85.8 73.602 91.18 53.433 82.063 37.675c-9.12-15.759-29.287-21.143-45.046-12.023-15.76 9.12-21.142 29.288-12.023 45.047z"/><path fill="none" stroke="#5b6b75" stroke-linejoin="round" stroke-miterlimit="50" stroke-width="3" d="M24.328 20.94C10.384 32.648 8.571 53.442 20.28 67.386c11.708 13.945 32.505 15.756 46.448 4.048 13.943-11.709 15.756-32.505 4.047-46.448C59.067 11.043 38.271 9.231 24.328 20.94z"/><path fill="none" stroke="#5b6b75" stroke-linecap="round" stroke-linejoin="round" stroke-miterlimit="50" stroke-width="3" d="M45.529 4.664V2.19M59.766 7.182l.848-2.324M72.278 14.427l1.594-1.892M81.547 25.523l2.145-1.232M86.45 39.125l2.438-.421M86.391 53.584l2.435.439M81.379 67.145l2.136 1.248"/><path fill="none" stroke="#ffb808" stroke-linecap="round" stroke-linejoin="round" stroke-miterlimit="50" stroke-width="3" d="M9.345 66.561L7.19 67.774M4.553 52.92l-2.44.4M4.73 38.463l-2.43-.461M9.852 24.942l-2.125-1.267M19.3 13.997l-1.562-1.918"/><path fill="none" stroke="#5b6b75" stroke-linecap="round" stroke-linejoin="round" stroke-miterlimit="50" stroke-width="3" d="M31.927 6.954l-.81-2.337"/><path fill="none" stroke="#ffb808" stroke-linecap="round" stroke-linejoin="round" stroke-miterlimit="50" stroke-width="3" d="M33.4 31.745l-3.948-4.702"/><path fill="#fff" d="M47.162 55.49c-5.138.903-10.034-2.53-10.937-7.669-.902-5.138 2.53-10.035 7.668-10.937 5.139-.903 10.036 2.531 10.938 7.668a9.446 9.446 0 0 1-7.67 10.938z"/><path fill="none" stroke="#5b6b75" stroke-linecap="round" stroke-linejoin="round" stroke-miterlimit="50" stroke-width="3" d="M47.162 55.49c-5.138.903-10.034-2.53-10.937-7.669-.902-5.138 2.53-10.035 7.668-10.937 5.139-.903 10.036 2.531 10.938 7.668a9.446 9.446 0 0 1-7.67 10.938z"/></svg>