<svg xmlns="http://www.w3.org/2000/svg" width="111" height="71" viewBox="0 0 111 71"><path fill="#ebeded" d="M82 71H9V10h73z"/><path fill="#fff" d="M74 11.5H1.5v-10H74z"/><path fill="none" stroke="#5b6b75" stroke-linejoin="round" stroke-miterlimit="50" stroke-width="3" d="M74.5 62.5h-73v-61h73zM1 11.5h73"/><path fill="#5b6b75" d="M10.053 6.58a1.634 1.634 0 1 1-3.269 0 1.634 1.634 0 0 1 3.269 0z"/><path fill="#ffb808" d="M15.053 6.58a1.634 1.634 0 1 1-3.269 0 1.634 1.634 0 0 1 3.269 0z"/><path fill="#5b6b75" d="M20.053 6.58a1.634 1.634 0 1 1-3.269 0 1.634 1.634 0 0 1 3.269 0z"/><path fill="none" stroke="#5b6b75" stroke-linejoin="round" stroke-miterlimit="50" stroke-width="3" d="M8.5 19.5h24v16h-24zM42.5 19.5h24v16h-24z"/><path fill="none" stroke="#ffb808" stroke-linecap="round" stroke-linejoin="round" stroke-miterlimit="50" stroke-width="3" d="M9 44.5h23M9 53.5h23M43 44.5h23M43 53.5h23"/><path fill="#f5f7f7" d="M109.593 54.094a4.467 4.467 0 0 1 1.318 3.182 4.466 4.466 0 0 1-1.32 3.182 4.466 4.466 0 0 1-3.18 1.318 4.463 4.463 0 0 1-3.181-1.319l-9.78-9.778c-.105-.106-.188-.229-.282-.344a21.345 21.345 0 0 1-12.034 3.684 21.356 21.356 0 0 1-15.203-6.298c-4.055-4.055-6.29-9.454-6.29-15.202 0-5.749 2.235-11.148 6.29-15.203a21.36 21.36 0 0 1 15.203-6.298 21.36 21.36 0 0 1 15.202 6.298c7.213 7.213 8.202 18.309 3.003 26.609.163.123.328.243.476.391zm-28.46-9.075c3.339 0 6.478-1.3 8.84-3.662 4.873-4.873 4.873-12.803-.001-17.677a12.414 12.414 0 0 0-8.838-3.662c-3.34 0-6.478 1.3-8.84 3.662-4.873 4.874-4.873 12.804 0 17.678a12.42 12.42 0 0 0 8.84 3.661z"/><path fill="#ffb808" d="M68.052 45.6c-7.213-7.213-7.213-18.95 0-26.163a18.38 18.38 0 0 1 13.081-5.419 18.38 18.38 0 0 1 13.082 5.42c7.212 7.212 7.212 18.95 0 26.162a18.38 18.38 0 0 1-13.082 5.42 18.377 18.377 0 0 1-13.08-5.42zm2.121-24.04c-6.043 6.042-6.043 15.875 0 21.92a15.398 15.398 0 0 0 10.96 4.54c4.14 0 8.032-1.613 10.96-4.54 6.043-6.045 6.043-15.878 0-21.92a15.399 15.399 0 0 0-10.96-4.542c-4.14 0-8.032 1.613-10.96 4.541z"/><path fill="#5b6b75" d="M105.411 57.776c-.384 0-.768-.146-1.06-.44l-7.779-7.778a1.5 1.5 0 1 1 2.121-2.121l7.78 7.778a1.502 1.502 0 0 1-1.062 2.56z"/></svg>